<mxfile host="app.diagrams.net" modified="2024-04-07T08:06:57.548Z" agent="Mozilla/5.0 (Windows NT 10.0; Win64; x64) AppleWebKit/537.36 (KHTML, like Gecko) Chrome/123.0.0.0 Safari/537.36" etag="OENK_Q15gWSDQ-mslWPD" version="24.2.2" type="device">
  <diagram name="Page-1" id="PJXZ96JBvKwJrm7onnCO">
    <mxGraphModel dx="1220" dy="929" grid="1" gridSize="10" guides="1" tooltips="1" connect="1" arrows="1" fold="1" page="1" pageScale="1" pageWidth="827" pageHeight="1169" math="0" shadow="0">
      <root>
        <mxCell id="0" />
        <mxCell id="1" parent="0" />
        <mxCell id="vLfOQGOGd01OPVvBfL6L-2" value="Base state" style="swimlane;whiteSpace=wrap;html=1;startSize=50;" vertex="1" parent="1">
          <mxGeometry x="120" y="80" width="160" height="160" as="geometry">
            <mxRectangle x="320" y="120" width="160" height="50" as="alternateBounds" />
          </mxGeometry>
        </mxCell>
        <mxCell id="vLfOQGOGd01OPVvBfL6L-42" style="edgeStyle=orthogonalEdgeStyle;rounded=0;orthogonalLoop=1;jettySize=auto;html=1;exitX=0;exitY=0.5;exitDx=0;exitDy=0;entryX=0;entryY=0.5;entryDx=0;entryDy=0;" edge="1" parent="1" source="vLfOQGOGd01OPVvBfL6L-6" target="vLfOQGOGd01OPVvBfL6L-5">
          <mxGeometry relative="1" as="geometry" />
        </mxCell>
        <mxCell id="vLfOQGOGd01OPVvBfL6L-6" value="Grounded state" style="swimlane;whiteSpace=wrap;html=1;startSize=50;" vertex="1" parent="1">
          <mxGeometry x="400" y="360" width="1040" height="360" as="geometry">
            <mxRectangle x="390" y="350" width="160" height="50" as="alternateBounds" />
          </mxGeometry>
        </mxCell>
        <mxCell id="vLfOQGOGd01OPVvBfL6L-49" style="edgeStyle=orthogonalEdgeStyle;rounded=0;orthogonalLoop=1;jettySize=auto;html=1;exitX=1;exitY=0.5;exitDx=0;exitDy=0;entryX=0;entryY=0.5;entryDx=0;entryDy=0;" edge="1" parent="vLfOQGOGd01OPVvBfL6L-6" source="vLfOQGOGd01OPVvBfL6L-8" target="vLfOQGOGd01OPVvBfL6L-7">
          <mxGeometry relative="1" as="geometry" />
        </mxCell>
        <mxCell id="vLfOQGOGd01OPVvBfL6L-61" style="edgeStyle=orthogonalEdgeStyle;rounded=0;orthogonalLoop=1;jettySize=auto;html=1;exitX=0.25;exitY=0;exitDx=0;exitDy=0;entryX=0.75;entryY=0;entryDx=0;entryDy=0;" edge="1" parent="vLfOQGOGd01OPVvBfL6L-6" source="vLfOQGOGd01OPVvBfL6L-8" target="vLfOQGOGd01OPVvBfL6L-4">
          <mxGeometry relative="1" as="geometry" />
        </mxCell>
        <mxCell id="vLfOQGOGd01OPVvBfL6L-63" style="edgeStyle=orthogonalEdgeStyle;rounded=0;orthogonalLoop=1;jettySize=auto;html=1;exitX=0.75;exitY=0;exitDx=0;exitDy=0;entryX=0.25;entryY=0;entryDx=0;entryDy=0;" edge="1" parent="vLfOQGOGd01OPVvBfL6L-6" source="vLfOQGOGd01OPVvBfL6L-8" target="vLfOQGOGd01OPVvBfL6L-34">
          <mxGeometry relative="1" as="geometry" />
        </mxCell>
        <mxCell id="vLfOQGOGd01OPVvBfL6L-67" style="edgeStyle=orthogonalEdgeStyle;rounded=0;orthogonalLoop=1;jettySize=auto;html=1;exitX=0.5;exitY=0;exitDx=0;exitDy=0;entryX=0.5;entryY=0;entryDx=0;entryDy=0;" edge="1" parent="vLfOQGOGd01OPVvBfL6L-6" source="vLfOQGOGd01OPVvBfL6L-8" target="vLfOQGOGd01OPVvBfL6L-35">
          <mxGeometry relative="1" as="geometry">
            <Array as="points">
              <mxPoint x="320" y="70" />
              <mxPoint x="920" y="70" />
            </Array>
          </mxGeometry>
        </mxCell>
        <mxCell id="vLfOQGOGd01OPVvBfL6L-8" value="Walk state" style="swimlane;whiteSpace=wrap;html=1;startSize=50;" vertex="1" parent="vLfOQGOGd01OPVvBfL6L-6">
          <mxGeometry x="240" y="120" width="160" height="160" as="geometry">
            <mxRectangle x="320" y="120" width="160" height="50" as="alternateBounds" />
          </mxGeometry>
        </mxCell>
        <mxCell id="vLfOQGOGd01OPVvBfL6L-60" style="edgeStyle=orthogonalEdgeStyle;rounded=0;orthogonalLoop=1;jettySize=auto;html=1;exitX=0.75;exitY=0;exitDx=0;exitDy=0;entryX=0.25;entryY=0;entryDx=0;entryDy=0;" edge="1" parent="vLfOQGOGd01OPVvBfL6L-6" source="vLfOQGOGd01OPVvBfL6L-4" target="vLfOQGOGd01OPVvBfL6L-8">
          <mxGeometry relative="1" as="geometry" />
        </mxCell>
        <mxCell id="vLfOQGOGd01OPVvBfL6L-68" style="edgeStyle=orthogonalEdgeStyle;rounded=0;orthogonalLoop=1;jettySize=auto;html=1;exitX=0.75;exitY=1;exitDx=0;exitDy=0;entryX=0.5;entryY=1;entryDx=0;entryDy=0;" edge="1" parent="vLfOQGOGd01OPVvBfL6L-6" source="vLfOQGOGd01OPVvBfL6L-4" target="vLfOQGOGd01OPVvBfL6L-34">
          <mxGeometry relative="1" as="geometry" />
        </mxCell>
        <mxCell id="vLfOQGOGd01OPVvBfL6L-71" style="edgeStyle=orthogonalEdgeStyle;rounded=0;orthogonalLoop=1;jettySize=auto;html=1;exitX=0.75;exitY=1;exitDx=0;exitDy=0;entryX=0.25;entryY=1;entryDx=0;entryDy=0;" edge="1" parent="vLfOQGOGd01OPVvBfL6L-6" source="vLfOQGOGd01OPVvBfL6L-4" target="vLfOQGOGd01OPVvBfL6L-35">
          <mxGeometry relative="1" as="geometry" />
        </mxCell>
        <mxCell id="vLfOQGOGd01OPVvBfL6L-4" value="Idle state" style="swimlane;whiteSpace=wrap;html=1;startSize=50;" vertex="1" parent="vLfOQGOGd01OPVvBfL6L-6">
          <mxGeometry x="40" y="120" width="160" height="160" as="geometry">
            <mxRectangle x="320" y="120" width="160" height="50" as="alternateBounds" />
          </mxGeometry>
        </mxCell>
        <mxCell id="vLfOQGOGd01OPVvBfL6L-62" style="edgeStyle=orthogonalEdgeStyle;rounded=0;orthogonalLoop=1;jettySize=auto;html=1;exitX=0.25;exitY=0;exitDx=0;exitDy=0;entryX=0.75;entryY=0;entryDx=0;entryDy=0;" edge="1" parent="vLfOQGOGd01OPVvBfL6L-6" source="vLfOQGOGd01OPVvBfL6L-34" target="vLfOQGOGd01OPVvBfL6L-8">
          <mxGeometry relative="1" as="geometry" />
        </mxCell>
        <mxCell id="vLfOQGOGd01OPVvBfL6L-34" value="Tiptoe state" style="swimlane;whiteSpace=wrap;html=1;startSize=50;" vertex="1" parent="vLfOQGOGd01OPVvBfL6L-6">
          <mxGeometry x="640" y="120" width="160" height="160" as="geometry">
            <mxRectangle x="320" y="120" width="160" height="50" as="alternateBounds" />
          </mxGeometry>
        </mxCell>
        <mxCell id="vLfOQGOGd01OPVvBfL6L-66" style="edgeStyle=orthogonalEdgeStyle;rounded=0;orthogonalLoop=1;jettySize=auto;html=1;exitX=0.5;exitY=0;exitDx=0;exitDy=0;entryX=0.5;entryY=0;entryDx=0;entryDy=0;" edge="1" parent="vLfOQGOGd01OPVvBfL6L-6" source="vLfOQGOGd01OPVvBfL6L-35" target="vLfOQGOGd01OPVvBfL6L-8">
          <mxGeometry relative="1" as="geometry">
            <Array as="points">
              <mxPoint x="920" y="70" />
              <mxPoint x="320" y="70" />
            </Array>
          </mxGeometry>
        </mxCell>
        <mxCell id="vLfOQGOGd01OPVvBfL6L-35" value="Crouch state" style="swimlane;whiteSpace=wrap;html=1;startSize=50;" vertex="1" parent="vLfOQGOGd01OPVvBfL6L-6">
          <mxGeometry x="840" y="120" width="160" height="160" as="geometry">
            <mxRectangle x="320" y="120" width="160" height="50" as="alternateBounds" />
          </mxGeometry>
        </mxCell>
        <mxCell id="vLfOQGOGd01OPVvBfL6L-50" style="edgeStyle=orthogonalEdgeStyle;rounded=0;orthogonalLoop=1;jettySize=auto;html=1;exitX=0;exitY=0.5;exitDx=0;exitDy=0;entryX=1;entryY=0.5;entryDx=0;entryDy=0;" edge="1" parent="vLfOQGOGd01OPVvBfL6L-6" source="vLfOQGOGd01OPVvBfL6L-7" target="vLfOQGOGd01OPVvBfL6L-8">
          <mxGeometry relative="1" as="geometry" />
        </mxCell>
        <mxCell id="vLfOQGOGd01OPVvBfL6L-7" value="Run state" style="swimlane;whiteSpace=wrap;html=1;startSize=50;" vertex="1" parent="vLfOQGOGd01OPVvBfL6L-6">
          <mxGeometry x="440" y="120" width="160" height="160" as="geometry">
            <mxRectangle x="320" y="120" width="160" height="50" as="alternateBounds" />
          </mxGeometry>
        </mxCell>
        <mxCell id="vLfOQGOGd01OPVvBfL6L-41" style="edgeStyle=orthogonalEdgeStyle;rounded=0;orthogonalLoop=1;jettySize=auto;html=1;exitX=0;exitY=0.5;exitDx=0;exitDy=0;entryX=0;entryY=0.5;entryDx=0;entryDy=0;" edge="1" parent="1" source="vLfOQGOGd01OPVvBfL6L-5" target="vLfOQGOGd01OPVvBfL6L-6">
          <mxGeometry relative="1" as="geometry" />
        </mxCell>
        <mxCell id="vLfOQGOGd01OPVvBfL6L-5" value="Jump state" style="swimlane;whiteSpace=wrap;html=1;startSize=50;" vertex="1" parent="1">
          <mxGeometry x="400" y="800" width="240" height="320" as="geometry">
            <mxRectangle x="390" y="730" width="160" height="50" as="alternateBounds" />
          </mxGeometry>
        </mxCell>
        <mxCell id="vLfOQGOGd01OPVvBfL6L-43" value="PlayerStateMachine" style="swimlane;whiteSpace=wrap;html=1;startSize=50;" vertex="1" parent="1">
          <mxGeometry x="360" y="80" width="160" height="160" as="geometry">
            <mxRectangle x="320" y="120" width="160" height="50" as="alternateBounds" />
          </mxGeometry>
        </mxCell>
        <mxCell id="vLfOQGOGd01OPVvBfL6L-44" value="Fall state?" style="swimlane;whiteSpace=wrap;html=1;startSize=50;" vertex="1" parent="1">
          <mxGeometry x="720" y="800" width="160" height="160" as="geometry">
            <mxRectangle x="320" y="120" width="160" height="50" as="alternateBounds" />
          </mxGeometry>
        </mxCell>
      </root>
    </mxGraphModel>
  </diagram>
</mxfile>
